<svg xmlns="http://www.w3.org/2000/svg" viewBox="0 0 32 32" fill="none">
  <!-- Background circle -->
  <circle cx="16" cy="16" r="15" fill="#1a365d"/>

  <!-- City skyline -->
  <rect x="3" y="14" width="4" height="12" fill="#4fd1c5"/>
  <rect x="8" y="10" width="3" height="16" fill="#63b3ed"/>
  <rect x="12" y="6" width="4" height="20" fill="#4fd1c5"/>
  <rect x="17" y="8" width="3" height="18" fill="#63b3ed"/>
  <rect x="21" y="12" width="4" height="14" fill="#4fd1c5"/>
  <rect x="26" y="16" width="3" height="10" fill="#63b3ed"/>

  <!-- Windows -->
  <rect x="4" y="16" width="1" height="1" fill="#1a365d"/>
  <rect x="4" y="19" width="1" height="1" fill="#1a365d"/>
  <rect x="13" y="8" width="1" height="1" fill="#1a365d"/>
  <rect x="13" y="11" width="1" height="1" fill="#1a365d"/>
  <rect x="13" y="14" width="1" height="1" fill="#1a365d"/>
  <rect x="18" y="10" width="1" height="1" fill="#1a365d"/>
  <rect x="18" y="13" width="1" height="1" fill="#1a365d"/>
  <rect x="22" y="14" width="1" height="1" fill="#1a365d"/>
  <rect x="22" y="17" width="1" height="1" fill="#1a365d"/>

  <!-- Chart bar -->
  <rect x="5" y="20" width="2" height="6" fill="#48bb78"/>
  <rect x="8" y="18" width="2" height="8" fill="#48bb78"/>
  <rect x="11" y="22" width="2" height="4" fill="#48bb78"/>

  <!-- Accent line -->
  <path d="M4 28 L16 28" stroke="#f6ad55" stroke-width="1.5" stroke-linecap="round"/>
</svg>